<mxfile host="app.diagrams.net" agent="Mozilla/5.0 (Windows NT 10.0; Win64; x64) AppleWebKit/537.36 (KHTML, like Gecko) Chrome/129.0.0.0 Safari/537.36" version="24.7.17">
  <diagram name="Page-1" id="-SQQoeLaoEQa5KzFSBCY">
    <mxGraphModel grid="1" page="1" gridSize="10" guides="1" tooltips="1" connect="1" arrows="1" fold="1" pageScale="1" pageWidth="850" pageHeight="1100" math="0" shadow="0">
      <root>
        <mxCell id="0" />
        <mxCell id="1" parent="0" />
        <mxCell id="134fZj0_m-FgGpLa5eQ6-1" value="" style="rounded=0;whiteSpace=wrap;html=1;" vertex="1" parent="1">
          <mxGeometry x="120" y="160" width="400" height="400" as="geometry" />
        </mxCell>
        <mxCell id="134fZj0_m-FgGpLa5eQ6-2" value="Player" style="shape=umlActor;verticalLabelPosition=bottom;verticalAlign=top;html=1;outlineConnect=0;" vertex="1" parent="1">
          <mxGeometry x="40" y="240" width="30" height="60" as="geometry" />
        </mxCell>
        <mxCell id="134fZj0_m-FgGpLa5eQ6-5" value="NPC" style="shape=umlActor;verticalLabelPosition=bottom;verticalAlign=top;html=1;outlineConnect=0;" vertex="1" parent="1">
          <mxGeometry x="40" y="400" width="30" height="60" as="geometry" />
        </mxCell>
        <mxCell id="134fZj0_m-FgGpLa5eQ6-6" value="" style="rounded=0;whiteSpace=wrap;html=1;" vertex="1" parent="1">
          <mxGeometry x="560" y="326" width="80" height="40" as="geometry" />
        </mxCell>
        <mxCell id="134fZj0_m-FgGpLa5eQ6-7" value="&lt;span style=&quot;color: rgb(0, 0, 0); font-family: Helvetica; font-size: 12px; font-style: normal; font-variant-ligatures: normal; font-variant-caps: normal; font-weight: 400; letter-spacing: normal; orphans: 2; text-indent: 0px; text-transform: none; widows: 2; word-spacing: 0px; -webkit-text-stroke-width: 0px; white-space: nowrap; background-color: rgb(251, 251, 251); text-decoration-thickness: initial; text-decoration-style: initial; text-decoration-color: initial; float: none; display: inline !important;&quot;&gt;System&lt;/span&gt;" style="text;whiteSpace=wrap;html=1;align=center;" vertex="1" parent="1">
          <mxGeometry x="565" y="330" width="70" height="20" as="geometry" />
        </mxCell>
        <mxCell id="134fZj0_m-FgGpLa5eQ6-11" value="Start Game" style="ellipse;whiteSpace=wrap;html=1;" vertex="1" parent="1">
          <mxGeometry x="170" y="170" width="110" height="60" as="geometry" />
        </mxCell>
        <mxCell id="134fZj0_m-FgGpLa5eQ6-12" value="Attack Each Other" style="ellipse;whiteSpace=wrap;html=1;" vertex="1" parent="1">
          <mxGeometry x="360" y="220" width="110" height="60" as="geometry" />
        </mxCell>
        <mxCell id="134fZj0_m-FgGpLa5eQ6-13" value="Choose Settings" style="ellipse;whiteSpace=wrap;html=1;" vertex="1" parent="1">
          <mxGeometry x="210" y="316" width="110" height="60" as="geometry" />
        </mxCell>
        <mxCell id="134fZj0_m-FgGpLa5eQ6-14" value="Play Mini Games" style="ellipse;whiteSpace=wrap;html=1;" vertex="1" parent="1">
          <mxGeometry x="400" y="310" width="110" height="60" as="geometry" />
        </mxCell>
        <mxCell id="134fZj0_m-FgGpLa5eQ6-15" value="Roll Dice" style="ellipse;whiteSpace=wrap;html=1;" vertex="1" parent="1">
          <mxGeometry x="170" y="420" width="110" height="60" as="geometry" />
        </mxCell>
        <mxCell id="134fZj0_m-FgGpLa5eQ6-16" value="Keep track of time and scores" style="ellipse;whiteSpace=wrap;html=1;" vertex="1" parent="1">
          <mxGeometry x="370" y="420" width="110" height="60" as="geometry" />
        </mxCell>
        <mxCell id="134fZj0_m-FgGpLa5eQ6-25" value="" style="rounded=0;whiteSpace=wrap;html=1;" vertex="1" parent="1">
          <mxGeometry x="120" y="710" width="400" height="260" as="geometry" />
        </mxCell>
        <mxCell id="134fZj0_m-FgGpLa5eQ6-26" value="Player" style="shape=umlActor;verticalLabelPosition=bottom;verticalAlign=top;html=1;outlineConnect=0;" vertex="1" parent="1">
          <mxGeometry x="40" y="750" width="30" height="60" as="geometry" />
        </mxCell>
        <mxCell id="134fZj0_m-FgGpLa5eQ6-27" value="Player 2" style="shape=umlActor;verticalLabelPosition=bottom;verticalAlign=top;html=1;outlineConnect=0;" vertex="1" parent="1">
          <mxGeometry x="610" y="750" width="30" height="60" as="geometry" />
        </mxCell>
        <mxCell id="134fZj0_m-FgGpLa5eQ6-28" value="Dodge Obstacles" style="ellipse;whiteSpace=wrap;html=1;" vertex="1" parent="1">
          <mxGeometry x="210" y="894" width="110" height="60" as="geometry" />
        </mxCell>
        <mxCell id="134fZj0_m-FgGpLa5eQ6-29" value="Activate Obstacles" style="ellipse;whiteSpace=wrap;html=1;" vertex="1" parent="1">
          <mxGeometry x="360" y="756" width="110" height="60" as="geometry" />
        </mxCell>
        <mxCell id="134fZj0_m-FgGpLa5eQ6-30" value="Get to the End" style="ellipse;whiteSpace=wrap;html=1;" vertex="1" parent="1">
          <mxGeometry x="170" y="770" width="110" height="60" as="geometry" />
        </mxCell>
        <mxCell id="134fZj0_m-FgGpLa5eQ6-31" value="Keep track of&lt;div&gt;player time&lt;/div&gt;" style="ellipse;whiteSpace=wrap;html=1;" vertex="1" parent="1">
          <mxGeometry x="360" y="856" width="110" height="60" as="geometry" />
        </mxCell>
        <mxCell id="134fZj0_m-FgGpLa5eQ6-34" value="" style="rounded=0;whiteSpace=wrap;html=1;" vertex="1" parent="1">
          <mxGeometry x="585" y="890" width="80" height="40" as="geometry" />
        </mxCell>
        <mxCell id="134fZj0_m-FgGpLa5eQ6-35" value="&lt;span style=&quot;color: rgb(0, 0, 0); font-family: Helvetica; font-size: 12px; font-style: normal; font-variant-ligatures: normal; font-variant-caps: normal; font-weight: 400; letter-spacing: normal; orphans: 2; text-indent: 0px; text-transform: none; widows: 2; word-spacing: 0px; -webkit-text-stroke-width: 0px; white-space: nowrap; background-color: rgb(251, 251, 251); text-decoration-thickness: initial; text-decoration-style: initial; text-decoration-color: initial; float: none; display: inline !important;&quot;&gt;System&lt;/span&gt;" style="text;whiteSpace=wrap;html=1;align=center;" vertex="1" parent="1">
          <mxGeometry x="590" y="894" width="70" height="20" as="geometry" />
        </mxCell>
        <mxCell id="134fZj0_m-FgGpLa5eQ6-37" value="" style="endArrow=classic;html=1;rounded=0;entryX=0;entryY=0.5;entryDx=0;entryDy=0;" edge="1" parent="1" target="134fZj0_m-FgGpLa5eQ6-30">
          <mxGeometry width="50" height="50" relative="1" as="geometry">
            <mxPoint x="70" y="780" as="sourcePoint" />
            <mxPoint x="380" y="770" as="targetPoint" />
          </mxGeometry>
        </mxCell>
        <mxCell id="134fZj0_m-FgGpLa5eQ6-39" value="" style="endArrow=classic;html=1;rounded=0;entryX=1;entryY=0.5;entryDx=0;entryDy=0;" edge="1" parent="1" source="134fZj0_m-FgGpLa5eQ6-27" target="134fZj0_m-FgGpLa5eQ6-29">
          <mxGeometry width="50" height="50" relative="1" as="geometry">
            <mxPoint x="520" y="840" as="sourcePoint" />
            <mxPoint x="570" y="790" as="targetPoint" />
          </mxGeometry>
        </mxCell>
        <mxCell id="134fZj0_m-FgGpLa5eQ6-40" value="" style="endArrow=classic;html=1;rounded=0;exitX=0;exitY=0.5;exitDx=0;exitDy=0;" edge="1" parent="1" source="134fZj0_m-FgGpLa5eQ6-34" target="134fZj0_m-FgGpLa5eQ6-31">
          <mxGeometry width="50" height="50" relative="1" as="geometry">
            <mxPoint x="520" y="890" as="sourcePoint" />
            <mxPoint x="570" y="840" as="targetPoint" />
          </mxGeometry>
        </mxCell>
        <mxCell id="HTm3OD3cIM4gbTqJvdxo-3" value="" style="endArrow=classic;html=1;rounded=0;entryX=0;entryY=0.5;entryDx=0;entryDy=0;" edge="1" parent="1" target="134fZj0_m-FgGpLa5eQ6-13">
          <mxGeometry width="50" height="50" relative="1" as="geometry">
            <mxPoint x="70" y="270" as="sourcePoint" />
            <mxPoint x="450" y="380" as="targetPoint" />
          </mxGeometry>
        </mxCell>
        <mxCell id="HTm3OD3cIM4gbTqJvdxo-4" value="" style="endArrow=classic;html=1;rounded=0;" edge="1" parent="1" target="134fZj0_m-FgGpLa5eQ6-11">
          <mxGeometry width="50" height="50" relative="1" as="geometry">
            <mxPoint x="70" y="270" as="sourcePoint" />
            <mxPoint x="450" y="380" as="targetPoint" />
          </mxGeometry>
        </mxCell>
        <mxCell id="HTm3OD3cIM4gbTqJvdxo-5" value="" style="endArrow=classic;html=1;rounded=0;entryX=0;entryY=0.5;entryDx=0;entryDy=0;" edge="1" parent="1" target="134fZj0_m-FgGpLa5eQ6-15">
          <mxGeometry width="50" height="50" relative="1" as="geometry">
            <mxPoint x="70" y="270" as="sourcePoint" />
            <mxPoint x="450" y="380" as="targetPoint" />
          </mxGeometry>
        </mxCell>
        <mxCell id="HTm3OD3cIM4gbTqJvdxo-6" value="" style="endArrow=classic;html=1;rounded=0;entryX=0;entryY=0.5;entryDx=0;entryDy=0;" edge="1" parent="1" target="134fZj0_m-FgGpLa5eQ6-12">
          <mxGeometry width="50" height="50" relative="1" as="geometry">
            <mxPoint x="70" y="270" as="sourcePoint" />
            <mxPoint x="450" y="380" as="targetPoint" />
          </mxGeometry>
        </mxCell>
        <mxCell id="HTm3OD3cIM4gbTqJvdxo-7" value="" style="endArrow=classic;html=1;rounded=0;entryX=0;entryY=0.5;entryDx=0;entryDy=0;" edge="1" parent="1" target="134fZj0_m-FgGpLa5eQ6-14">
          <mxGeometry width="50" height="50" relative="1" as="geometry">
            <mxPoint x="70" y="270" as="sourcePoint" />
            <mxPoint x="450" y="380" as="targetPoint" />
          </mxGeometry>
        </mxCell>
        <mxCell id="HTm3OD3cIM4gbTqJvdxo-8" value="" style="endArrow=classic;html=1;rounded=0;entryX=0.077;entryY=0.858;entryDx=0;entryDy=0;entryPerimeter=0;" edge="1" parent="1">
          <mxGeometry width="50" height="50" relative="1" as="geometry">
            <mxPoint x="70" y="399.9975305742286" as="sourcePoint" />
            <mxPoint x="178.47000000000003" y="216.81000000000003" as="targetPoint" />
          </mxGeometry>
        </mxCell>
        <mxCell id="HTm3OD3cIM4gbTqJvdxo-9" value="" style="endArrow=classic;html=1;rounded=0;entryX=0;entryY=0.5;entryDx=0;entryDy=0;" edge="1" parent="1" target="134fZj0_m-FgGpLa5eQ6-13">
          <mxGeometry width="50" height="50" relative="1" as="geometry">
            <mxPoint x="70" y="400" as="sourcePoint" />
            <mxPoint x="450" y="380" as="targetPoint" />
          </mxGeometry>
        </mxCell>
        <mxCell id="HTm3OD3cIM4gbTqJvdxo-10" value="" style="endArrow=classic;html=1;rounded=0;entryX=0;entryY=0.5;entryDx=0;entryDy=0;" edge="1" parent="1" target="134fZj0_m-FgGpLa5eQ6-15">
          <mxGeometry width="50" height="50" relative="1" as="geometry">
            <mxPoint x="70" y="400" as="sourcePoint" />
            <mxPoint x="450" y="380" as="targetPoint" />
          </mxGeometry>
        </mxCell>
        <mxCell id="HTm3OD3cIM4gbTqJvdxo-12" value="" style="endArrow=classic;html=1;rounded=0;entryX=0;entryY=1;entryDx=0;entryDy=0;" edge="1" parent="1" target="134fZj0_m-FgGpLa5eQ6-14">
          <mxGeometry width="50" height="50" relative="1" as="geometry">
            <mxPoint x="70" y="400" as="sourcePoint" />
            <mxPoint x="450" y="380" as="targetPoint" />
          </mxGeometry>
        </mxCell>
        <mxCell id="HTm3OD3cIM4gbTqJvdxo-13" value="" style="endArrow=classic;html=1;rounded=0;entryX=0;entryY=0.5;entryDx=0;entryDy=0;" edge="1" parent="1" target="134fZj0_m-FgGpLa5eQ6-12">
          <mxGeometry width="50" height="50" relative="1" as="geometry">
            <mxPoint x="70" y="400" as="sourcePoint" />
            <mxPoint x="450" y="380" as="targetPoint" />
          </mxGeometry>
        </mxCell>
        <mxCell id="HTm3OD3cIM4gbTqJvdxo-14" value="" style="endArrow=classic;html=1;rounded=0;entryX=0.968;entryY=0.368;entryDx=0;entryDy=0;entryPerimeter=0;" edge="1" parent="1" source="134fZj0_m-FgGpLa5eQ6-6" target="134fZj0_m-FgGpLa5eQ6-16">
          <mxGeometry width="50" height="50" relative="1" as="geometry">
            <mxPoint x="400" y="430" as="sourcePoint" />
            <mxPoint x="450" y="380" as="targetPoint" />
          </mxGeometry>
        </mxCell>
        <mxCell id="HTm3OD3cIM4gbTqJvdxo-15" value="" style="endArrow=classic;html=1;rounded=0;entryX=0.42;entryY=0.049;entryDx=0;entryDy=0;dashed=1;entryPerimeter=0;" edge="1" parent="1" source="134fZj0_m-FgGpLa5eQ6-30" target="134fZj0_m-FgGpLa5eQ6-28">
          <mxGeometry relative="1" as="geometry">
            <mxPoint x="280" y="830" as="sourcePoint" />
            <mxPoint x="380" y="830" as="targetPoint" />
          </mxGeometry>
        </mxCell>
        <mxCell id="HTm3OD3cIM4gbTqJvdxo-17" value="Text" style="edgeLabel;html=1;align=center;verticalAlign=middle;resizable=0;points=[];" connectable="0" vertex="1" parent="HTm3OD3cIM4gbTqJvdxo-15">
          <mxGeometry x="0.0858" y="5" relative="1" as="geometry">
            <mxPoint as="offset" />
          </mxGeometry>
        </mxCell>
        <mxCell id="HTm3OD3cIM4gbTqJvdxo-18" value="Include" style="edgeLabel;html=1;align=center;verticalAlign=middle;resizable=0;points=[];" connectable="0" vertex="1" parent="HTm3OD3cIM4gbTqJvdxo-15">
          <mxGeometry x="0.0703" y="5" relative="1" as="geometry">
            <mxPoint as="offset" />
          </mxGeometry>
        </mxCell>
      </root>
    </mxGraphModel>
  </diagram>
</mxfile>
